Coordinates
nRows=254
nColumns=2
inDegrees=yes
endheader
time	ankle_angle_r	
7.01915	 18.585260	
7.05242	 18.554840	
7.08569	 18.630981	
7.11895	 18.495035	
7.15222	 18.555130	
7.18548	 18.524710	
7.21875	 18.631617	
7.25202	 18.555420	
7.28528	 18.630981	
7.31855	 18.646240	
7.35181	 18.661499	
7.38508	 18.633221	
7.41835	 18.720102	
7.45161	 18.646240	
7.48488	 18.632391	
7.51815	 18.663006	
7.55141	 18.649445	
7.58468	 18.659800	
7.61794	 18.707275	
7.65121	 18.693909	
7.68448	 18.650219	
7.71774	 18.722534	
7.75101	 18.676758	
7.78427	 18.637819	
7.81754	 18.720158	
7.85081	 18.692017	
7.88407	 18.671619	
7.91734	 18.686684	
7.9506	 18.679522	
7.98387	 18.676758	
8.01714	 18.722534	
8.0504	 18.701170	
8.08367	 18.673609	
8.11694	 18.719288	
8.1502	 18.700590	
8.18347	 18.681698	
8.21673	 18.707275	
8.25	 18.653507	
8.28327	 18.562487	
8.31653	 18.669151	
8.3498	 18.596540	
8.38306	 18.622942	
8.41633	 18.639214	
8.4496	 18.657286	
8.48286	 18.692017	
8.51613	 18.657093	
8.5494	 18.641737	
8.58266	 18.711876	
8.61593	 18.611027	
8.64919	 18.620516	
8.68246	 18.687126	
8.71573	 18.621008	
8.74899	 18.610640	
8.78226	 18.696915	
8.81552	 18.595186	
8.84879	 18.529543	
8.88206	 18.676758	
8.91532	 18.697584	
8.94859	 18.611792	
8.98185	 18.606224	
9.01512	 18.655642	
9.04839	 18.563993	
9.08165	 18.673599	
9.11492	 18.621870	
9.14819	 18.612251	
9.18145	 18.652580	
9.21472	 18.728971	
9.24798	 18.670225	
9.28125	 18.652870	
9.31452	 18.663303	
9.34778	 18.630981	
9.38105	 18.661499	
9.41431	 18.708500	
9.44758	 18.585205	
9.48085	 18.593254	
9.51411	 18.729841	
9.54738	 18.623127	
9.58065	 18.714775	
9.61391	 18.753052	
9.64718	 18.684452	
9.68044	 18.684547	
9.71371	 18.729906	
9.74698	 18.707275	
9.78024	 18.714453	
9.81351	 18.722534	
9.84677	 18.700291	
9.88004	 18.739275	
9.91331	 18.746260	
9.94657	 18.715839	
9.97984	 18.739855	
10.0131	 18.722534	
10.0464	 18.709724	
10.0796	 18.740437	
10.1129	 18.710112	
10.1462	 18.701160	
10.1794	 18.725758	
10.2127	 18.695433	
10.246	 18.688408	
10.2792	 18.728262	
10.3125	 18.680754	
10.3458	 18.701740	
10.379	 18.707275	
10.4123	 18.630981	
10.4456	 18.585205	
10.4788	 18.569946	
10.5121	 18.630981	
10.5454	 18.559643	
10.5786	 18.651098	
10.6119	 18.580444	
10.6452	 18.554688	
10.6784	 18.605032	
10.7117	 18.559158	
10.745	 18.596090	
10.7782	 18.630981	
10.8115	 18.603180	
10.8448	 18.569946	
10.878	 18.646240	
10.9113	 18.577728	
10.9446	 18.550812	
10.9778	 18.592600	
11.0111	 18.581604	
11.0444	 18.585205	
11.0776	 18.658092	
11.1109	 18.627670	
11.1442	 18.649454	
11.1774	 18.679874	
11.2107	 18.630981	
11.244	 18.606312	
11.2772	 18.661499	
11.3105	 18.661499	
11.3437	 18.679392	
11.377	 18.661499	
11.4103	 18.674316	
11.4435	 18.668531	
11.4768	 18.711769	
11.5101	 18.689867	
11.5433	 18.696125	
11.5766	 18.693974	
11.6099	 18.651821	
11.6431	 18.680285	
11.6764	 18.739460	
11.7097	 18.681469	
11.7429	 18.722534	
11.7762	 18.739170	
11.8095	 18.692017	
11.8427	 18.722534	
11.876	 18.722534	
11.9093	 18.706285	
11.9425	 18.693804	
11.9758	 18.706478	
12.0091	 18.691317	
12.0423	 18.662102	
12.0756	 18.721521	
12.1089	 18.645830	
12.1421	 18.692017	
12.1754	 18.722101	
12.2087	 18.630981	
12.2419	 18.600487	
12.2752	 18.661352	
12.3085	 18.615892	
12.3417	 18.661766	
12.375	 18.631708	
12.4083	 18.631901	
12.4415	 18.676758	
12.4748	 18.646240	
12.5081	 18.600464	
12.5413	 18.630135	
12.5746	 18.720648	
12.6079	 18.646240	
12.6411	 18.600464	
12.6744	 18.645006	
12.7077	 18.674097	
12.7409	 18.586632	
12.7742	 18.675234	
12.8075	 18.646240	
12.8407	 18.705559	
12.874	 18.692017	
12.9073	 18.558508	
12.9405	 18.661499	
12.9738	 18.630981	
13.0071	 18.587406	
13.0403	 18.648537	
13.0736	 18.656712	
13.1069	 18.615723	
13.1401	 18.636156	
13.1734	 18.707275	
13.2067	 18.694798	
13.2399	 18.676758	
13.2732	 18.725508	
13.3065	 18.692017	
13.3397	 18.765142	
13.373	 18.640774	
13.4062	 18.680119	
13.4395	 18.695475	
13.4728	 18.714384	
13.506	 18.710926	
13.5393	 18.753052	
13.5726	 18.688173	
13.6058	 18.665440	
13.6391	 18.730608	
13.6724	 18.704418	
13.7056	 18.680988	
13.7389	 18.707275	
13.7722	 18.707275	
13.8054	 18.681278	
13.8387	 18.701252	
13.872	 18.681473	
13.9052	 18.671947	
13.9385	 18.727442	
13.9718	 18.686766	
14.005	 18.681858	
14.0383	 18.712473	
14.0716	 18.676758	
14.1048	 18.676758	
14.1381	 18.732306	
14.1714	 18.661499	
14.2046	 18.695913	
14.2379	 18.667276	
14.2712	 18.585205	
14.3044	 18.676758	
14.3377	 18.576014	
14.371	 18.551453	
14.4042	 18.615723	
14.4375	 18.600464	
14.4708	 18.594009	
14.504	 18.624430	
14.5373	 18.615723	
14.5706	 18.593719	
14.6038	 18.546270	
14.6371	 18.622660	
14.6704	 18.593430	
14.7036	 18.623850	
14.7369	 18.662302	
14.7702	 18.616333	
14.8034	 18.683764	
14.8367	 18.684277	
14.87	 18.684372	
14.9032	 18.699564	
14.9365	 18.692017	
14.9698	 18.684113	
15.003	 18.714533	
15.0363	 18.699177	
15.0696	 18.692017	
15.1028	 18.714243	
15.1361	 18.737793	
15.1694	 18.698790	
15.2026	 18.722534	
15.2359	 18.724632	
15.2692	 18.689726	
15.3024	 18.741695	
15.3357	 18.713566	
15.369	 18.689146	
15.4022	 18.740826	
15.4355	 18.747051	
